# xmcd
#
# Track frame offsets: 
#        150
#        11530
#        18832
#        32800
#        41705
#        49455
#        54960
#        67147
#        78295
#        89470
#
# Disc length: 1376 seconds
#
# Revision: 0
# Processed by: cddbd v1.4PL0 Copyright (c) Steve Scherf et al.
# Submitted via: ExactAudioCopy v0.90b3
#
DISCID=7c055e0a
DTITLE=George Jones - Your Tender Years
DYEAR=1900
DGENRE=Country
TTITLE0=Your Tender Years
TTITLE1=Ragged, But Right
TTITLE2=Open Pit Mine
TTITLE3=Jonesy
TTITLE4=Yes, I Know Why
TTITLE5=Liberty
TTITLE6=I Can't Escape From You
TTITLE7=From Now On All My Friends Are Gonna Be Strangers
TTITLE8=World Of Forgotten People
TTITLE9=Things Have Gone To Pieces
EXTD=
EXTT0=
EXTT1=
EXTT2=
EXTT3=
EXTT4=
EXTT5=
EXTT6=
EXTT7=
EXTT8=
EXTT9=
PLAYORDER=
